<svg id="Capa_1" data-name="Capa 1" xmlns="http://www.w3.org/2000/svg" viewBox="0 0 350 532"><defs><style>.cls-1{fill:none;}.cls-2{fill:#f35d12;}</style></defs><path class="cls-1" d="M191,10.07l-2.14-.3c-1.42,4.45-3.8,8.84-4.06,13.35-.54,9.29.09,18.66.17,28,.13,16.16,1.2,32.42-3.11,48.25-6.71,24.61-22,43.57-41.32,59.26C128,168.78,114.7,178,101.43,187.23c-23.08,16-43.7,34.55-59.56,57.82a195.88,195.88,0,0,0-26,56.51c-9,31.44-11,63.41-1.72,94.78,19.55,66.4,77.13,120.4,156,125.45,36.53,2.34,71.06-4.29,101.63-24.67,39.05-26,64.84-61.18,69.51-109.48,4.63-47.95-18.07-92.81-58.72-114.37-22.06-11.71-45.28-15.37-69.5-7.16-4.63,1.57-9,3.81-14.54,6.17V257c0-15.35-2.37-11.07,11-17.47,29-13.88,55.43-31.06,76.25-56.1,20.13-24.21,32-52.22,36.68-83,2.43-16,1.64-32.54,2.28-48.83.08-2,0-4.06,0-7.06-1.38,1.83-2.05,2.57-2.54,3.4a9.07,9.07,0,0,0-1.15,2.65C317.13,68.82,309.13,85.3,299,100.74c-23.52,35.6-58.66,56.4-95.73,74.65-3,1.5-5.45,1.07-5.49-3.39-.14-14.62-.7-29.24-.68-43.86.07-31.17.12-62.35.79-93.51C198,25.4,194.15,18,191,10.07Z"/><path class="cls-2" d="M191,10.07c3.15,7.92,7,15.33,6.83,24.56-.67,31.16-.72,62.34-.79,93.51,0,14.62.54,29.24.68,43.86,0,4.46,2.45,4.89,5.49,3.39,37.07-18.25,72.21-39,95.73-74.65,10.21-15.44,18.21-31.92,22.15-50.18a9.06,9.06,0,0,1,1.17-2.64c.49-.83,1.16-1.57,2.54-3.4,0,3,.07,5,0,7.06-.64,16.29.15,32.81-2.28,48.83-4.67,30.74-16.55,58.75-36.68,83-20.82,25-47.24,42.22-76.25,56.1-13.38,6.4-11,2.12-11,17.47v15.31c5.5-2.36,9.91-4.6,14.54-6.17,24.22-8.21,47.44-4.55,69.5,7.16,40.65,21.56,63.35,66.42,58.72,114.37-4.67,48.3-30.46,83.45-69.51,109.48-30.57,20.38-65.1,27-101.63,24.67-78.89-5-136.47-59-156-125.46C4.88,365,6.8,333,15.84,301.56a195.76,195.76,0,0,1,26.05-56.51c15.86-23.27,36.48-41.83,59.56-57.82,13.27-9.2,26.56-18.45,39.09-28.6,19.37-15.69,34.61-34.65,41.32-59.26,4.31-15.81,3.24-32.1,3.12-48.26-.08-9.33-.71-18.7-.17-28,.26-4.51,2.64-8.9,4.06-13.35ZM174.39,176.39c-3.62,2-6.21,3.31-8.75,4.74-19,10.69-38.35,20.8-56.89,32.24C71.26,236.49,45.3,268.82,34,311.89a156.81,156.81,0,0,0,.76,83.57,127.77,127.77,0,0,0,25.2,47.81c40.91,48.94,93.1,66.73,155,54.09,39.73-8.1,69.85-31.05,90.19-66.31,9.05-15.68,12.56-32.63,9.13-50.5q-5.61-29.22-30.54-46.09c-19.4-13.08-39.86-16.73-61.39-6.58C203,337,191.77,352.1,191.84,374.25c0,2.66.73,5.33,1.25,8.82,2.53-1.63,4.21-2.39,5.49-3.58,9.89-9.14,30-7.61,40.06-1.58,32.6,19.6,35.19,66.28,5.18,93-13.26,11.81-29.66,16.68-46.66,18.37C158.28,493.15,123.37,482,93.62,457c-44.17-37.07-61.5-83.75-46.44-140.6,8.8-33.1,28.2-59.26,54.8-80.25,20.46-16.15,43.38-27.87,68.18-36,1.68-.55,4-2.59,4.07-4.08C174.66,190,174.39,183.87,174.39,176.39Zm.72,76.46c-5.86,4-10.57,7.15-15.12,10.47-25.14,18.31-44.67,40.45-51.78,72-8,35.33,14.26,72,49.63,79.75,12,2.63,23.68.76,33-8.32,4.9-4.79,4.7-8.51,1-14.1a129.21,129.21,0,0,1-8.41-14.15c-6.88-13.82-7.76-28.84-7.87-43.88-.18-24.84,0-49.68-.05-74.53-.08-1.92-.25-3.84-.4-7.24Z"/></svg>